<svg width="58" height="53" viewBox="0 0 58 53" fill="none" xmlns="http://www.w3.org/2000/svg">
<path fill-rule="evenodd" clip-rule="evenodd" d="M52.7327 26.2011C52.7327 38.4511 41.9615 48.3808 28.6758 48.3808C15.389 48.3808 4.61896 38.4501 4.61896 26.2011C4.61896 13.9511 15.3901 4.02136 28.6758 4.02136C41.9626 4.02136 52.7327 13.9521 52.7327 26.2011Z" fill="#0078AD"/>
<path fill-rule="evenodd" clip-rule="evenodd" d="M18.0893 12.7201C15.1077 12.7201 12.6592 14.9776 12.6592 17.7265V28.6978C12.6592 30.0921 13.2907 31.3586 14.3008 32.2695C14.3368 32.3038 14.3737 32.3375 14.4107 32.3708C14.4467 32.4051 14.4836 32.4388 14.5206 32.4721C14.56 32.5097 14.6002 32.5465 14.6409 32.583C14.6804 32.6205 14.7203 32.6574 14.7611 32.6938C14.7973 32.728 14.8337 32.762 14.871 32.7951C14.9032 32.8255 14.9341 32.8574 14.9672 32.8869C14.996 32.9142 15.0271 32.9394 15.0565 32.9661C15.0957 33.0037 15.1362 33.0404 15.1767 33.0769C15.2161 33.1145 15.2563 33.1513 15.297 33.1878C15.3365 33.2253 15.3764 33.2622 15.4172 33.2986C15.4534 33.3328 15.4898 33.3668 15.5271 33.3999C15.5593 33.4303 15.5902 33.4622 15.6233 33.4917C15.6521 33.519 15.6832 33.5442 15.7126 33.5709C15.7518 33.6085 15.7923 33.6452 15.8328 33.6817C15.8722 33.7193 15.9124 33.7561 15.9531 33.7926C15.9926 33.8301 16.0325 33.867 16.0733 33.9034C16.1095 33.9376 16.1459 33.9716 16.1832 34.0047C16.2154 34.0351 16.2463 34.067 16.2794 34.0965C16.3082 34.1238 16.3393 34.149 16.3687 34.1757C16.4079 34.2133 16.4484 34.25 16.4889 34.2865C16.5227 34.3187 16.5573 34.3502 16.592 34.3816C16.6391 34.4266 16.6875 34.4712 16.7363 34.5146C16.7703 34.5465 16.8045 34.5785 16.8394 34.6096C16.8756 34.6438 16.912 34.6778 16.9493 34.711C16.9815 34.7414 17.0124 34.7732 17.0455 34.8028C17.0743 34.83 17.1054 34.8552 17.1348 34.8819C17.174 34.9195 17.2145 34.9563 17.255 34.9927C17.2944 35.0303 17.3346 35.0671 17.3753 35.1036C17.4148 35.1411 17.4547 35.1781 17.4955 35.2144C17.5317 35.2486 17.5681 35.2826 17.6054 35.3158C17.6376 35.3462 17.6685 35.378 17.7016 35.4076C17.7304 35.4348 17.7615 35.46 17.7909 35.4867C17.8301 35.5243 17.8706 35.5611 17.9111 35.5975C17.9505 35.6351 17.9907 35.6719 18.0314 35.7084C18.0709 35.7459 18.1108 35.7829 18.1516 35.8192C18.1878 35.8534 18.2242 35.8874 18.2615 35.9206C18.2937 35.951 18.3246 35.9828 18.3577 36.0124C18.3864 36.0396 18.4175 36.0649 18.447 36.0915C18.4862 36.1291 18.5267 36.1659 18.5672 36.2023C18.6066 36.2399 18.6468 36.2767 18.6875 36.3132C18.727 36.3507 18.7669 36.3877 18.8077 36.424C18.8438 36.4582 18.8803 36.4922 18.9176 36.5254C18.9537 36.5595 18.9902 36.5936 19.0275 36.6267C19.0525 36.6503 19.0775 36.6732 19.1031 36.6964C19.1423 36.734 19.1828 36.7708 19.2233 36.8073C19.2593 36.8416 19.2962 36.8752 19.3332 36.9086C19.3726 36.9462 19.4128 36.9829 19.4535 37.0194C19.493 37.0569 19.5329 37.0939 19.5737 37.1303C19.6098 37.1644 19.6463 37.1985 19.6836 37.2316C19.7158 37.262 19.7467 37.2938 19.7797 37.3234C19.8085 37.3506 19.8396 37.3759 19.8691 37.4025C19.9083 37.4401 19.9488 37.4769 19.9893 37.5134C20.0287 37.551 20.0689 37.5877 20.1096 37.6242C20.1491 37.6617 20.189 37.6987 20.2298 37.7351C20.2659 37.7692 20.3024 37.8033 20.3397 37.8364C20.3719 37.8668 20.4028 37.8986 20.4358 37.9282C20.4646 37.9554 20.4957 37.9807 20.5252 38.0073C20.5644 38.0449 20.6049 38.0817 20.6454 38.1182C20.6848 38.1558 20.725 38.1925 20.7656 38.229C20.8052 38.2665 20.8451 38.3035 20.8859 38.3399C20.922 38.374 20.9585 38.4081 20.9958 38.4412C21.028 38.4716 21.0589 38.5034 21.0919 38.533C21.1207 38.5602 21.1518 38.5855 21.1813 38.6121C21.1974 38.6276 21.2129 38.6442 21.2294 38.6596H20.8482C20.3611 38.6596 19.969 39.0212 19.969 39.4702C19.969 39.7245 20.0944 39.9519 20.2919 40.1004C20.3257 40.1363 20.3615 40.1718 20.4018 40.2017C20.4327 40.2342 20.4686 40.2628 20.5049 40.2904C20.5397 40.3279 20.5764 40.3638 20.6182 40.3948C20.651 40.4298 20.6856 40.4607 20.7247 40.4899C20.758 40.5254 20.7949 40.5585 20.8346 40.588C20.8676 40.6234 20.9016 40.6567 20.941 40.6862C20.974 40.7214 21.0117 40.7551 21.0509 40.7844C21.0837 40.8195 21.1184 40.8534 21.1574 40.8826C21.1905 40.9178 21.2245 40.9515 21.2639 40.9808C21.2951 41.0143 21.33 41.0445 21.367 41.0726C21.4013 41.1101 21.4389 41.1463 21.4803 41.177C21.511 41.2099 21.547 41.2413 21.5834 41.2688C21.6174 41.3059 21.6557 41.3429 21.6967 41.3733C21.7308 41.4098 21.769 41.4447 21.81 41.4746C21.8394 41.5057 21.8717 41.537 21.9062 41.5633C21.9383 41.5987 21.974 41.6289 22.0127 41.6583C22.0454 41.6949 22.0794 41.7263 22.1192 41.7565C22.1517 41.7929 22.1896 41.8246 22.2291 41.8547C22.2615 41.8909 22.2962 41.923 22.3356 41.9529C22.3678 41.9889 22.4063 42.0214 22.4455 42.0511C22.4775 42.0869 22.513 42.1196 22.5519 42.1492C22.5863 42.1877 22.6263 42.2226 22.6688 42.2537C22.6989 42.2865 22.7324 42.315 22.7683 42.3424C22.8006 42.3788 22.8354 42.4105 22.8748 42.4405C22.9085 42.4786 22.9467 42.511 22.9881 42.5419C23.0192 42.5767 23.0534 42.6081 23.0912 42.6369C23.1266 42.6769 23.1675 42.7126 23.2114 42.7446C23.2406 42.7763 23.2729 42.8068 23.3076 42.8333C23.3417 42.8718 23.3822 42.9067 23.4244 42.9377C23.4551 42.9715 23.487 43.0018 23.524 43.0295C23.5561 43.0658 23.5946 43.0981 23.6339 43.1277C23.6658 43.1638 23.7013 43.1965 23.7404 43.2259C23.7737 43.2636 23.8125 43.2969 23.8537 43.3272C23.8871 43.3646 23.9257 43.3986 23.967 43.4285C23.9994 43.4643 24.0336 43.4979 24.0735 43.5267C24.1058 43.5623 24.1437 43.5962 24.1834 43.6249C24.2134 43.658 24.2466 43.6865 24.283 43.7136C24.3168 43.7522 24.354 43.7874 24.3963 43.818C24.4267 43.8521 24.4621 43.8822 24.4993 43.9098C24.5328 43.948 24.5708 43.984 24.6127 44.0143C24.6447 44.0502 24.6795 44.0838 24.7191 44.1125C24.7512 44.1483 24.7893 44.182 24.829 44.2107C24.8623 44.2479 24.9007 44.2826 24.9424 44.312C24.9721 44.3448 25.0055 44.374 25.0419 44.4006C25.0755 44.439 25.1129 44.4749 25.1552 44.5051C25.1863 44.54 25.2197 44.5723 25.2583 44.6001C25.2902 44.6363 25.3284 44.6697 25.3682 44.6983C25.3999 44.7342 25.4351 44.7679 25.4747 44.7965C25.5053 44.8313 25.5432 44.8637 25.5812 44.8916C25.6125 44.928 25.6481 44.9608 25.6877 44.9897C25.7192 45.0264 25.7543 45.0589 25.7942 45.0879C25.8249 45.1239 25.8619 45.1543 25.9007 45.183C25.9325 45.2207 25.9699 45.2547 26.0106 45.2843C26.0439 45.3232 26.0846 45.3555 26.1274 45.3856C26.1582 45.4208 26.1918 45.4528 26.2305 45.4807C26.2629 45.5183 26.2989 45.5527 26.3404 45.582C26.3711 45.6175 26.4079 45.6491 26.4469 45.677C26.4777 45.7131 26.514 45.7437 26.5534 45.7721C26.5857 45.8103 26.6216 45.8439 26.6633 45.8734C26.694 45.9093 26.7305 45.9404 26.7697 45.9684C26.8009 46.0052 26.8363 46.0379 26.8762 46.0666C26.9087 46.1049 26.9476 46.1385 26.9895 46.1679C27.0217 46.2054 27.0579 46.2406 27.0994 46.2693C27.132 46.3068 27.1709 46.3388 27.2128 46.3674C27.2432 46.4021 27.2772 46.4324 27.3158 46.4592C27.3463 46.4951 27.3798 46.5265 27.4189 46.5543C27.4528 46.5948 27.4909 46.6317 27.5357 46.662C27.5666 46.6974 27.6026 46.7298 27.6422 46.757C27.6744 46.7945 27.7103 46.8301 27.7521 46.8584C27.7829 46.8936 27.8191 46.9232 27.8586 46.9502C27.8896 46.9866 27.9248 47.0206 27.9651 47.0483C27.9953 47.0843 28.0289 47.1158 28.0682 47.1434C28.1007 47.1828 28.1382 47.2186 28.1815 47.2478C28.2116 47.2832 28.2455 47.3127 28.2846 47.3396C28.315 47.3765 28.351 47.4099 28.3911 47.4378C28.4239 47.4778 28.4636 47.5129 28.5079 47.5423C28.5398 47.5797 28.5758 47.6127 28.6178 47.6405C28.6491 47.6768 28.6867 47.7117 28.7277 47.7386C28.7561 47.7716 28.7874 47.8021 28.8239 47.8273C28.8553 47.8665 28.8911 47.8998 28.9338 47.9286C28.9687 47.9715 29.009 48.0094 29.0574 48.0395C29.085 48.0707 29.1149 48.1011 29.1502 48.125C29.1801 48.1617 29.2165 48.1927 29.2566 48.22C29.2913 48.2632 29.3319 48.3008 29.3803 48.3309C29.3922 48.3446 29.4022 48.3593 29.4147 48.372C42.3597 48.0125 52.7341 38.2265 52.7341 26.2044C52.7341 24.8047 52.5944 23.4351 52.3254 22.1069C52.287 22.0705 52.2483 22.0346 52.2086 21.9992C52.169 21.9619 52.1292 21.9245 52.0884 21.8884C52.0594 21.8612 52.0321 21.8325 52.0025 21.806C51.9703 21.7755 51.9359 21.747 51.903 21.7173C51.867 21.683 51.8301 21.6493 51.7931 21.616C51.7537 21.5784 51.7135 21.5416 51.6728 21.5052C51.6333 21.4677 51.5934 21.4307 51.5526 21.3943C51.513 21.357 51.4732 21.3196 51.4324 21.2835C51.4035 21.2563 51.3761 21.2276 51.3465 21.2011C51.3143 21.1706 51.2799 21.1421 51.247 21.1124C51.211 21.0781 51.1741 21.0444 51.1371 21.0111C51.1152 20.9902 51.0941 20.9682 51.0718 20.9478C51.0133 20.8907 50.951 20.8375 50.8898 20.7831C50.8558 20.7512 50.8217 20.7192 50.7867 20.6881C50.7471 20.6508 50.7074 20.6134 50.6665 20.5772C50.6376 20.5501 50.6102 20.5214 50.5807 20.4949C50.5485 20.4644 50.5141 20.4359 50.4811 20.4062C50.4451 20.3718 50.4082 20.3382 50.3712 20.3049C50.3318 20.2673 50.2916 20.2305 50.251 20.194C50.2114 20.1565 50.1715 20.1196 50.1307 20.0832C50.0912 20.0459 50.0514 20.0085 50.0105 19.9723C49.9816 19.9452 49.9542 19.9165 49.9247 19.89C49.8925 19.8595 49.8581 19.831 49.8251 19.8013C49.7892 19.7669 49.7522 19.7333 49.7152 19.7C49.6759 19.6624 49.6356 19.6256 49.595 19.5891C49.5554 19.5516 49.5155 19.5147 49.4747 19.4783C49.4352 19.441 49.3954 19.4036 49.3545 19.3674C49.3256 19.3403 49.2982 19.3116 49.2687 19.2851C49.2365 19.2546 49.2021 19.2261 49.1691 19.1964C49.1332 19.162 49.0962 19.1284 49.0592 19.0951C49.0255 19.0629 48.9909 19.0314 48.9561 19C48.8971 18.9435 48.8394 18.8861 48.7775 18.8322C48.7553 18.8118 48.7315 18.7922 48.7089 18.7721C48.6693 18.7348 48.6295 18.6974 48.5886 18.6612C48.5636 18.6377 48.5386 18.6146 48.513 18.5915C48.4771 18.5571 48.4401 18.5235 48.4031 18.4902C48.3672 18.4558 48.3302 18.4222 48.2932 18.3888C48.2539 18.3513 48.2136 18.3145 48.173 18.278C48.1334 18.2405 48.0935 18.2035 48.0528 18.1671C48.0132 18.1299 47.9734 18.0925 47.9325 18.0563C47.9036 18.0291 47.8763 18.0005 47.8467 17.9739C47.8145 17.9434 47.7801 17.915 47.7471 17.8853C47.7112 17.8509 47.6743 17.8173 47.6372 17.7839C47.5979 17.7464 47.5577 17.7096 47.517 17.6731C47.4774 17.6356 47.4375 17.5986 47.3968 17.5622C47.3572 17.525 47.3174 17.4876 47.2765 17.4514C47.2476 17.4242 47.2203 17.3956 47.1907 17.369C47.1585 17.3385 47.1241 17.3101 47.0911 17.2804C47.0552 17.246 47.0183 17.2124 46.9812 17.179C46.9419 17.1415 46.9017 17.1047 46.861 17.0682C46.8215 17.0307 46.7816 16.9937 46.7408 16.9573C46.7012 16.9201 46.6614 16.8827 46.6206 16.8465C46.5917 16.8193 46.5643 16.7907 46.5347 16.7641C46.5025 16.7336 46.4681 16.7052 46.4352 16.6755C46.3992 16.6411 46.3623 16.6075 46.3253 16.5741C46.3034 16.5533 46.2823 16.5313 46.26 16.5108C46.2015 16.4538 46.1392 16.4006 46.078 16.3462C46.044 16.3142 46.0098 16.2822 45.9749 16.2511C45.9353 16.2138 45.8956 16.1764 45.8547 16.1403C45.8258 16.1131 45.7984 16.0844 45.7688 16.0579C45.7366 16.0274 45.7022 15.9989 45.6693 15.9692C45.6333 15.9349 45.5964 15.9012 45.5594 15.8679C45.52 15.8303 45.4798 15.7935 45.4391 15.7571C45.3996 15.7196 45.3597 15.6826 45.3189 15.6462C45.2793 15.6089 45.2396 15.5715 45.1987 15.5354C45.1698 15.5082 45.1424 15.4795 45.1129 15.453C45.0807 15.4225 45.0463 15.394 45.0133 15.3643C44.9773 15.33 44.9404 15.2963 44.9034 15.263C44.864 15.2254 44.8238 15.1886 44.7832 15.1522C44.7436 15.1147 44.7037 15.0777 44.6629 15.0413C44.6234 15.004 44.5836 14.9666 44.5427 14.9305C44.5138 14.9033 44.4864 14.8746 44.4569 14.8481C44.4247 14.8176 44.3903 14.7891 44.3573 14.7594C44.3214 14.7251 44.2844 14.6914 44.2474 14.6581C44.2081 14.6205 44.1678 14.5837 44.1272 14.5473C44.0876 14.5098 44.0477 14.4728 44.0069 14.4364C43.9708 14.4023 43.9343 14.3682 43.897 14.3351C43.8609 14.3009 43.8244 14.2669 43.7871 14.2338C42.799 13.3024 41.4255 12.7202 39.9132 12.7202H18.0917" fill="black" fill-opacity="0.235"/>
<path fill-rule="evenodd" clip-rule="evenodd" d="M29 0.662476C13.523 0.662476 0.97583 12.2306 0.97583 26.5C0.97583 40.7694 13.523 52.3375 29 52.3375C44.4771 52.3375 57.0242 40.7694 57.0242 26.5C57.0242 12.2306 44.4771 0.662476 29 0.662476ZM29.9701 5.21505C43.2569 5.21505 54.027 15.1448 54.027 27.3948C54.027 39.6448 43.2569 49.5745 29.9701 49.5745C16.6833 49.5745 5.90996 39.6448 5.90996 27.3948C5.90996 15.1448 16.6833 5.21505 29.9701 5.21505" fill="black" fill-opacity="0.067"/>
<path fill-rule="evenodd" clip-rule="evenodd" d="M29 1.01025C13.7307 1.01025 1.35278 12.4223 1.35278 26.5002C1.35278 40.5781 13.7307 51.9902 29 51.9902C44.2694 51.9902 56.6473 40.5781 56.6473 26.5002C56.6473 12.4223 44.2694 1.01025 29 1.01025M29.6468 4.91689C42.9336 4.91689 53.7036 14.8466 53.7036 27.0966C53.7036 39.3467 42.9336 49.2764 29.6468 49.2764C16.36 49.2764 5.58664 39.3467 5.58664 27.0966C5.58664 14.8466 16.36 4.91689 29.6468 4.91689" fill="black" fill-opacity="0.129"/>
<path fill-rule="evenodd" clip-rule="evenodd" d="M29 1.40759C13.9691 1.40759 1.78467 12.6413 1.78467 26.4994C1.78467 40.3574 13.9691 51.5912 29 51.5912C44.0309 51.5912 56.2154 40.3574 56.2154 26.4994C56.2154 12.6413 44.0309 1.40759 29 1.40759M29.3233 4.61864C42.6101 4.61864 53.3802 14.5484 53.3802 26.7984C53.3802 39.0484 42.6101 48.9781 29.3233 48.9781C16.0366 48.9781 5.26319 39.0484 5.26319 26.7984C5.26319 14.5484 16.0366 4.61864 29.3233 4.61864Z" fill="black" fill-opacity="0.129"/>
<path fill-rule="evenodd" clip-rule="evenodd" d="M28.6747 1.35754C13.7922 1.35754 1.72864 12.4809 1.72864 26.2011C1.72864 39.9223 13.7933 51.0446 28.6747 51.0446C43.5572 51.0446 55.6208 39.9213 55.6208 26.2011C55.6208 12.4798 43.5561 1.35754 28.6747 1.35754V1.35754ZM28.6747 4.02205C41.9615 4.02205 52.7316 13.9518 52.7316 26.2018C52.7316 38.4518 41.9615 48.3815 28.6747 48.3815C15.388 48.3815 4.61458 38.4518 4.61458 26.2018C4.61458 13.9518 15.388 4.02205 28.6747 4.02205V4.02205Z" fill="white" stroke="black" stroke-opacity="0.31" stroke-width="0.154019"/>
<path fill-rule="evenodd" clip-rule="evenodd" d="M18.3992 14.6379C16.4472 14.6379 14.8802 16.0666 14.8802 17.8471V28.3898C14.8802 30.1699 16.4471 31.5989 18.3992 31.5989H35.4258C35.5263 31.5271 35.6518 31.4795 35.7894 31.4795C35.927 31.4795 36.0379 31.5271 36.1383 31.5989H39.599C41.551 31.5989 43.118 30.1702 43.118 28.3898V17.8471C43.118 16.0669 41.5512 14.6379 39.599 14.6379H18.3984" fill="#0078AD"/>
<path d="M18.3981 14.6388C16.4461 14.6388 14.8813 16.0665 14.8813 17.8463V28.3901C14.8813 30.1702 16.4475 31.6669 18.3981 31.5976L23.1721 31.4286C30.1778 27.779 27.967 21.8343 33.4883 14.6383L18.3981 14.6388Z" fill="white" fill-opacity="0.079"/>
<path d="M18.0893 12.7201C15.1077 12.7201 12.6592 14.9776 12.6592 17.7265V28.6978C12.6592 31.4467 15.1077 33.7042 18.0893 33.7042H39.9108C42.8923 33.7042 45.3409 31.4467 45.3409 28.6978V17.7265C45.3409 14.9776 42.8923 12.7201 39.9108 12.7201H18.0893ZM18.5221 15.1711H39.4787C41.1854 15.1711 42.549 16.4183 42.549 17.9892V28.4347C42.549 30.0056 41.1827 31.2655 39.4787 31.2655H18.5221C16.8183 31.2655 15.4517 30.0056 15.4517 28.4347V17.9892C15.4517 16.4183 16.8154 15.1711 18.5221 15.1711M35.8311 31.5663C36.3977 31.5663 36.8546 31.9875 36.8546 32.5099C36.8546 33.0322 36.3978 33.4567 35.8311 33.4567C35.2646 33.4567 34.8042 33.0322 34.8042 32.5099C34.8042 31.9876 35.2646 31.5663 35.8311 31.5663Z" fill="white"/>
<path d="M30.3441 35.0272H27.2658C26.5933 35.0272 26.0482 35.5299 26.0482 36.1499V38.5827C26.0482 39.2027 26.5933 39.7053 27.2658 39.7053H30.3441C31.0166 39.7053 31.5618 39.2027 31.5618 38.5827V36.1499C31.5618 35.5299 31.0166 35.0272 30.3441 35.0272Z" fill="white"/>
<path d="M36.6732 38.6587H20.8456C20.36 38.6587 19.9664 39.0216 19.9664 39.4693C19.9664 39.917 20.36 40.2799 20.8456 40.2799H36.6732C37.1588 40.2799 37.5524 39.917 37.5524 39.4693C37.5524 39.0216 37.1588 38.6587 36.6732 38.6587Z" fill="white"/>
</svg>
